/* XPM */
static const char *add_xpm[] = {
/* columns rows colors chars-per-pixel */
"24 24 6 1 ",
"  c None",
". c navy",
"X c #B4B4B4",
"o c gray83",
"O c gray94",
"+ c gray96",
/* pixels */
"  XXXXXXXXXXXXXXXXXXXX  ",
" XoOOOOOOOOOOOOOOOOOOoX ",
"XoOO+OOOOOOOOOOO++OOOOoX",
"XOOOOOOOOOOOOOOO++OOOOOX",
"XOOOOOOOOOOOOOOOOOOOOOOX",
"XOOOOOOOOOOOOOOOOOOOOOOX",
"XOOOOOOOOOOOOOOOOOOOOOOX",
"XOOOOOOOOOO..OOOOOOOOOOX",
"XOOOOOOOO+O..OOOO++OOOOX",
"XOOOOOOO++O..OOOOOOOOO+X",
"XO++OOOO+OO..OOOOOOOOOOX",
"XO+OOOO..........OOOOOOX",
"XOOOOOO..........OOOOOOX",
"XOOOOOOOOOO..OOOOOOOOOOX",
"XOOOOOOOOOO..OOOOOOOOOOX",
"XOOOOOOOOOO..OOOOOOOOOOX",
"XOOOOOOOOOO..OOOO+OOOOOX",
"XOOOOOOOOOOOOOOO++OOOO+X",
"XOOOOOOOOOOOOOOO+OOOOOOX",
"XOOOOOOOOOOOOOOOOOOOOOOX",
"XOOOO+++OOOOOOOOOOOOOOOX",
"XoOOOOO+OOOOOOOOOOOOOOoX",
" XoOOOOOOOOOOOOOOOOOOoX ",
"  XXXXXXXXXXXXXXXXXXXX  "
};
