/* XPM */
static const char *backwards_xpm[] = {
/* columns rows colors chars-per-pixel */
"24 24 7 1 ",
"  c None",
". c navy",
"X c #3467BC",
"o c #B4B4B4",
"O c gray83",
"+ c gray94",
"@ c gray96",
/* pixels */
"  oooooooooooooooooooo  ",
" oO++++++++++++++++++Oo ",
"oO++@+++++++++++@@++++Oo",
"o+++++++++++++++@@+++++o",
"o++++++++++++++++++++++o",
"o++++++++++++++++++++++o",
"o++++++++@+++++++++++++o",
"o+++++++@@+++X..+++++++o",
"o++++++++++X....+++++++o",
"o++++++++X......+++++++o",
"o++++++X........@@++++@o",
"o+++++..........@@++++@o",
"o+++++..........+++++++o",
"o++++++X........+++++++o",
"o++++++++X......+++++++o",
"o++++++++++X....+++++++o",
"o++++++++++++X..++++@++o",
"o++++++++++++++++++++@+o",
"o+++++++++++@++++++++++o",
"o+++++++++++@++++++++++o",
"o++++@@@+++++++++++++++o",
"oO+++++@++++++++++++++Oo",
" oO++++++++++++++++++Oo ",
"  oooooooooooooooooooo  "
};
