/* XPM */
static const char *delete_xpm[] = {
/* columns rows colors chars-per-pixel */
"24 24 6 1 ",
"  c None",
". c navy",
"X c #B4B4B4",
"o c gray83",
"O c gray94",
"+ c gray96",
/* pixels */
"  XXXXXXXXXXXXXXXXXXXX  ",
" XoOOOOOOOOOOOOOOOOOOoX ",
"XoOO+OOOOOOOOOOO++OOOOoX",
"XOOOOOOOOOOOOOOO++OOOOOX",
"XOOOOOOOOO++OOOOOOOOOOOX",
"XOOOOOOOOOO+OOOOOOOOOOOX",
"XOOOOOOOOOO+OOOOOOOOOOOX",
"XOOOOOOOOOOOOOOOOOOOOOOX",
"XOOOOOOOOOOOOOOOO++OOOOX",
"XOOOOOOOOOOOOOOOOOOOOO+X",
"XO++OOOOO+OOOOOOOOOOOOOX",
"XO+OOOO..........OOOOOOX",
"XOOOO+O..........OOOOOOX",
"XOOOOOOOOOOOOOOOOOOOOOOX",
"XOOOOOOOOOOOOOOOOOOOOOOX",
"XOOOOOOOOOOOOOOOOOOOOOOX",
"XOOOOOOOOOOOOOOOOOOOOOOX",
"XOOOOOOOOOOOOOOOOOOOOOOX",
"XOOOOOOOOOOO++OOOO+OOOOX",
"XOOOOOOOOOOO++OOOO++OOOX",
"XOOOO+++OOOOOOOOOOOOOOOX",
"XoOOOOO+OOOOOOOOOOOOOOoX",
" XoOOOOOOOOOOOOOOOOOOoX ",
"  XXXXXXXXXXXXXXXXXXXX  "
};
