/* XPM */
static const char *deltime_xpm[] = {
/* columns rows colors chars-per-pixel */
"24 24 6 1 ",
"  c None",
". c #EA0712",
"X c #B4B4B4",
"o c gray83",
"O c gray94",
"+ c gray96",
/* pixels */
"  XXXXXXXXXXXXXXXXXXXX  ",
" XoOOOOOOOOOOOOO++OOOoX ",
"XoOOOOOOOOOOOOOO++OOOOoX",
"XOOOOOOOOOOOOOOOOOOOOOOX",
"XOOOOOOOOOOOOOOOOOOOOOOX",
"XOOOOOOOOOOOOOOOOOOOOOOX",
"XOOOOOOO.+OOOOO.OOOOOOOX",
"XOOOOOO...OOOO...OOOOOOX",
"XOOOOO.....OO.....OOOOOX",
"XOOOOOO..........OOOOOOX",
"XOOOOOOO........O+OOOOOX",
"XOOOOOOOO......OOOOOOOOX",
"XOOOOOOOO......OOOOOOOOX",
"XOOOOOOO........OOOOOOOX",
"XOOOOOO..........OOOOOOX",
"XOOOOO.....OO.....OOOOOX",
"XOOOOOO...OOOO...OOOOOOX",
"XOOOOOOO.OOOOO+.OOOO+OOX",
"XOOOOOOOOOOOOOOOOOOOOOOX",
"XOOOOOOOOOOOOOOOOOOOOOOX",
"XOOOOOOOOOOOOOOOOOOOOOOX",
"XoOOOO++OOOOOOOOOOOOOOoX",
" XoOOO++OOOOOOOOOOOOOoX ",
"  XXXXXXXXXXXXXXXXXXXX  "
};
