/* XPM */
static const char *draw_down_xpm[] = {
/* columns rows colors chars-per-pixel */
"24 24 12 1 ",
"  c None",
". c #000040",
"X c #606064",
"o c #646464",
"O c gray40",
"+ c #686868",
"@ c #727272",
"# c #49699F",
"$ c #7F8488",
"% c #8D969F",
"& c #8C96A0",
"* c #8C96A6",
/* pixels */
"  @OOOOOOOOOOOOOOOOOO@  ",
" +$%&&&&&&&&&&&&&&&&%$+ ",
"@$&&&&&&&&&&&&&&&&&&&&$@",
"O%&&&&&&&&&&&&&&&&&&&&%O",
"O&&&&&&*&&&&&&&&&&&&&&&O",
"O&&&&&&&**&&&...&&&&&&&O",
"O&&&&&&&&*&&.&&&.&&&&&&O",
"O&&&&&&&*&&#..&#.&&&&&&O",
"O&&&&*****&.#&...*&&&&&O",
"O&&&&*****.#&&&.O*&&&&&O",
"O&&&&&***#.&&&#.****&&&O",
"O&&&&&***.#&&&.*****&&&O",
"O&&&&&**#.**&.#&&&&*&&&O",
"O&&&&&**.#**#.&&&&&&&&&O",
"O&&&&&&&.&&&.O&&&&&&&&&O",
"O&&&&&&&..&..***&&&&&&&O",
"O&&&&&&&....*&****&&&&&O",
"O&&&&&&&..O&&&*&**&&&&&O",
"O&&&&&&O.&&&&&&&***&&&&O",
"O&&&*&&&&&&&&&&&***&&&&O",
"O%&&&&&&&&&&&&&&&&&&&&%O",
"@$&&&&&&&&&&&&&&&&&&&&$@",
" +$%&&&&&&&&&&&&&&&&%$+ ",
"  @OOOOOOOOOOOOOOOOOO@  "
};
