/* XPM */
static const char *draw_xpm[] = {
/* columns rows colors chars-per-pixel */
"24 24 9 1 ",
"  c None",
". c navy",
"X c #A0A0A4",
"o c #B4B4B4",
"O c #89A9DF",
"+ c gray83",
"@ c #E2EAF8",
"# c gray94",
"$ c gray96",
/* pixels */
"  oooooooooooooooooooo  ",
" o+#############$$###+o ",
"o+##$############$####+o",
"o######################o",
"o######################o",
"o############...#######o",
"o###########.@@@.######o",
"o##########O..@O.######o",
"o#$########.O@...######o",
"o#########.O@@@.X######o",
"o##$#####O.@@@O.$$#####o",
"o########.O@@@.#$$#####o",
"o#######O.@@@.O########o",
"o#######.O@@O.#########o",
"o#######.@@@.X#########o",
"o#######..@..##########o",
"o#######....######$$$##o",
"o#######..X#######$####o",
"o######X.##############o",
"o######################o",
"o######################o",
"o+####################+o",
" o+##$###############+o ",
"  oooooooooooooooooooo  "
};
