/* XPM */
static const char *duplicate_xpm[] = {
/* columns rows colors chars-per-pixel */
"24 24 6 1 ",
"  c None",
". c navy",
"X c #B4B4B4",
"o c gray83",
"O c gray94",
"+ c gray96",
/* pixels */
"  XXXXXXXXXXXXXXXXXXXX  ",
" XoOOOOOOOOOOOOOOOOOOoX ",
"XoOO+OOOOOOOOOOO++OOOOoX",
"XOOOOOOOOOOOOOOO++OOOOOX",
"XOOOOOOOOOOOOOOOOOOOOOOX",
"XOOOOOOOOOOOOOOOOOOOOOOX",
"XOOOOOOOOOOOOOOOOOOOOOOX",
"XOOOOOOOO..OO..OOOOOOOOX",
"XOOOOOOOO..OO..OOOOOOOOX",
"XOOOOOOOO..OO..OOOOOOOOX",
"XOOOO+OOO..OO..O++OOOO+X",
"XOOO++OOO..OO..O++OOOO+X",
"XOOOOOOOO..OO..OOOOOOOOX",
"XOOOOOOOO..OO..OOOOOOOOX",
"XOOOOOOOO..OO..OOOOOOOOX",
"XOOOOOOOO..OO..OOOOOOOOX",
"XOOOOOOOO..OO..OOOOOO++X",
"XOOOOOOOOOOOOOOOO+OOOOOX",
"XOOOOOOOOOOOOOOOOOOOOOOX",
"XOOOOOOOOOOOOOOOOOOOOOOX",
"XOOOO+++OOOOOOOOOOOOOOOX",
"XoOOOOO+OOOOOOOOOOOOOOoX",
" XoOOOOOOOOOOOOOOOOOOoX ",
"  XXXXXXXXXXXXXXXXXXXX  "
};
