/* XPM */
static const char *files_xpm[] = {
/* columns rows colors chars-per-pixel */
"24 24 14 1 ",
"  c None",
". c navy",
"X c #B4B4B4",
"o c #89A9DF",
"O c #9AB6E4",
"+ c #A8C0E8",
"@ c #B8CCEC",
"# c gray83",
"$ c #C4D5F0",
"% c #D2DFF4",
"& c #DCE6F6",
"* c #E2EAF8",
"= c gray94",
"- c gray96",
/* pixels */
"  XXXXXXXXXXXXXXXXXXXX  ",
" X#==================#X ",
"X#====================#X",
"X======================X",
"X====....==============X",
"X===.$$@+.=============X",
"X===...............====X",
"X===.&&$$@@$$$@$@Oo.===X",
"X===.%%%&&%%%%%%$+O.===X",
"X===.&&.....&&&&%$+.===X",
"X===.&&&&&&&&&&&&%@.===X",
"X===.&&&*......&&&$.===X",
"X===.&&&&&&&&&&&&&&.===X",
"X===.&&&&&&......&&.===X",
"X===.&&&&&&&&&&&&&*.===X",
"X===.&&&&&&.....&&&.===X",
"X===.&&&&&&&&&&&&&&.===X",
"X===.&&&&....&&&&&&.===X",
"X===.&&&&&&&&&&&&&&.===X",
"X===................===X",
"X======================X",
"X#====================#X",
" X#==================#X ",
"  XXXXXXXXXXXXXXXXXXXX  "
};
