/* XPM */
static const char *files_down_xpm[] = {
/* columns rows colors chars-per-pixel */
"24 24 18 1 ",
"  c None",
". c #000030",
"X c #646464",
"o c gray40",
"O c #686868",
"+ c gray44",
"@ c #727272",
"# c #39598F",
"$ c #4A6694",
"% c #587098",
"& c #687C9C",
"* c #7F8488",
"= c #7485A0",
"- c #8D969F",
"; c #828FA4",
": c #8C96A0",
"> c #8C96A6",
", c #929AA8",
/* pixels */
"  @oooooooooooooooooo@  ",
" O*-::::::::::::::::-*O ",
"@*::::::::::-:::::::::*@",
"o-::::::::::::::::::::-o",
"o:::@....::::::::::::::o",
"o:::.==&%.:::::::::::::o",
"o:::...............::::o",
"o:::.;;==&&===&=&$#.:::o",
"o:::.;;;;;;;;;;;=%$.:::o",
"o:::.>:.....::::;=%.:::o",
"o:::.>:::::::::::;&.:::o",
"o:::.>:::......:>>=.:::o",
"o:::.::::::::::>::;.:::o",
"o:::.>:::::......::.:::o",
"o:::.>>>:>:::>>>::,.:::o",
"o:::.>>>>>:.....:::.:::o",
"o:-:.:::::::::>>>>:.:::o",
"o:::.::::....::::::.:::o",
"o:::.::::::::>:>:::.:::o",
"o:::................:::o",
"o-::::::::::::::::::::-o",
"@*::::::::::::::::::::*@",
" O*-::::::::::::::::-*O ",
"  @oooooooooooooooooo@  "
};
