/* XPM */
static const char *help_xpm[] = {
/* columns rows colors chars-per-pixel */
"24 24 9 1 ",
"  c None",
". c navy",
"X c #B4B4B4",
"o c #A8C0E8",
"O c gray83",
"+ c #C4D5F0",
"@ c #DCE6F6",
"# c gray94",
"$ c gray96",
/* pixels */
"  XXXXXXXXXXXXXXXXXXXX  ",
" XO#############$$###OX ",
"XO###############$####OX",
"X######################X",
"X######################X",
"X#######o......o#######X",
"X######o.+@@@@+.o######X",
"X######.+@@@@@@+.######X",
"X#$####.@@@.+@@+.######X",
"X######.+@@.+@@+.######X",
"X######o....@@@.o$#####X",
"X#########.@@@+.$$#####X",
"X########.+@@+.o#######X",
"X########.@@@+.########X",
"X########o....o########X",
"X########.@@@+.########X",
"X########.@@@+.########X",
"X########.+@@+.########X",
"X########o....o########X",
"X######################X",
"X####$$$###############X",
"XO#####$##############OX",
" XO##################OX ",
"  XXXXXXXXXXXXXXXXXXXX  "
};
