/* XPM */
static const char *move_down_xpm[] = {
/* columns rows colors chars-per-pixel */
"24 24 13 1 ",
"  c None",
". c #000040",
"X c #646464",
"o c gray40",
"O c #686868",
"+ c #727272",
"@ c #124290",
"# c #315899",
"$ c #7F8488",
"% c #6880A8",
"& c #8D969F",
"* c #8C96A0",
"= c #8C96A6",
/* pixels */
"  +oooooooooooooooooo+  ",
" O$&*****************$O ",
"+$********************$+",
"o&********************&o",
"o******=***********=***o",
"o**********..**********o",
"o*******.*.=@..@*******o",
"o******.*..*%.*.*******o",
"o***=**.%*.*%.*.@.==***o",
"o*******.*.**.*.=@.=***o",
"o****=.@.=%*%**#**.****o",
"o***=.**.===**=***.=***o",
"o****.=*#*****=**.*****o",
"o***==.*******=%*.*****o",
"o***===.****==%=@.*****o",
"o***===.%*===%=%.******o",
"o*******.*%*=*=.*===***o",
"o********.**=*%.**=****o",
"o********.%*%%#.*******o",
"o***=*********=********o",
"o&********************&o",
"+$********************$+",
" O$*****************&$O ",
"  +oooooooooooooooooo+  "
};
