/* XPM */
static const char *move_xpm[] = {
/* columns rows colors chars-per-pixel */
"24 24 12 1 ",
"  c None",
". c navy",
"X c #5282D0",
"o c #7198D9",
"O c #B4B4B4",
"+ c #A8C0E8",
"@ c gray83",
"# c #D2DFF4",
"$ c #DCE6F6",
"% c #E2EAF8",
"& c gray94",
"* c gray96",
/* pixels */
"  OOOOOOOOOOOOOOOOOOOO  ",
" O@&&&&&&&&&&&&&&&&&&@O ",
"O@&&&&&&&&&&&&&&**&&&&@O",
"O&&&&&&&&&&&&&&&**&&&&&O",
"O&&&&&&&&&&&&&&&&&&&&&&O",
"O&&&&&&&&&&..&&&&&&&&&&O",
"O&&&&&&&.&.$X..X&&&&&&&O",
"O&&&&&&.$..$+.%.&&&&&&&O",
"O&&&&&&.+$.$+.$.X.&&&&&O",
"O&&&&&&&.$.$$.%.$X.&&&&O",
"O&&&&&.X.$+$+$#o$$.&&&&O",
"O&&&&.$$.$$$##$$$$.&&&&O",
"O&&&&.%$o#$$$$$$$.&&&&&O",
"O&&&&&.$$$$$$##+%.&&&&&O",
"O&&&&&&.##$$$$+#X.&&&&&O",
"O&&&&&&.+#$$#+#+.&&&&&&O",
"O&&&&&&&.$+$$$#.&&&&&&&O",
"O&&&&&&&&.$$$$+.&&&&&&&O",
"O&&&&&&&&.+$++o.&&&&&&&O",
"O&&&&&&&&&&&&&&&&&&&&&&O",
"O&&&&***&&&&&&&&&&&&&&&O",
"O@&&&&&*&&&&&&&&&&&&&&@O",
" O@&&&&&&&&&&&&&&&&&&@O ",
"  OOOOOOOOOOOOOOOOOOOO  "
};
