/* XPM */
static const char *new_xpm[] = {
/* columns rows colors chars-per-pixel */
"24 24 15 1 ",
"  c None",
". c navy",
"X c #6B94D7",
"o c #B4B4B4",
"O c #89A9DF",
"+ c #9AB6E4",
"@ c #A8C0E8",
"# c #B8CCEC",
"$ c gray83",
"% c #C4D5F0",
"& c #D2DFF4",
"* c #DCE6F6",
"= c #E2EAF8",
"- c gray94",
"; c gray96",
/* pixels */
"  oooooooooooooooooooo  ",
" o$------------------$o ",
"o$---------------;----$o",
"o----------------------o",
"o-----.........--------o",
"o-----.%%#@+O.X.-------o",
"o-----.*%%#@+.*+.------o",
"o-----.*&%%#@.**+.-----o",
"o-----.*&&%%#.....-----o",
"o-----.***&&%#@+O.-----o",
"o-----.*****&%#@+.-----o",
"o-----.****=*&%#@.-----o",
"o-----.*****=*&%#.-----o",
"o-----.******=*&%.-----o",
"o-----.*******=**.-----o",
"o-----.**********.-----o",
"o-----.*********=.-----o",
"o-----.**********.-----o",
"o-----............-----o",
"o----------------------o",
"o----------------------o",
"o$--------------------$o",
" o$------------------$o ",
"  oooooooooooooooooooo  "
};
