/* XPM */
static const char *open_xpm[] = {
/* columns rows colors chars-per-pixel */
"24 24 162 2 ",
"   c None",
".  c #000072",
"X  c #000075",
"o  c #000078",
"O  c #000079",
"+  c #00007B",
"@  c #00007D",
"#  c #11117F",
"$  c #00296B",
"%  c #18337C",
"&  c #22447D",
"*  c #75BA55",
"=  c #76BA56",
"-  c #77BB58",
";  c #76B667",
":  c #76BC68",
">  c #78BE6A",
",  c #7BBE6A",
"<  c #77B876",
"1  c #7FC558",
"2  c #92DF5F",
"3  c #A1DE59",
"4  c #99EE49",
"5  c #9DEE4F",
"6  c #9AEA53",
"7  c #99EC51",
"8  c #9CED50",
"9  c #9DEE51",
"0  c #97E659",
"q  c #A2F546",
"w  c #A0F249",
"e  c #A2F64C",
"r  c #80C767",
"t  c #8EDA65",
"y  c #8AD46B",
"u  c #AFCF7A",
"i  c navy",
"p  c #000081",
"a  c #000082",
"s  c #000085",
"d  c #000087",
"f  c #111180",
"g  c #111181",
"h  c #111182",
"j  c #111183",
"k  c #1E1E85",
"l  c #111188",
"z  c #1E1E8F",
"x  c #003584",
"c  c #002C97",
"v  c #173493",
"b  c #2D2D8F",
"n  c #3D3D8E",
"m  c #283F97",
"M  c #3D3D91",
"N  c #3D3D9D",
"B  c #1D4495",
"V  c #23499D",
"C  c #2D5595",
"Z  c #2C579E",
"A  c #385D9A",
"S  c #1E44A2",
"D  c #2D42AA",
"F  c #3450A1",
"G  c #3552A2",
"H  c #3253A6",
"J  c #3354A4",
"K  c #3D5BA8",
"L  c #2357B2",
"P  c #424294",
"I  c #5F5F9D",
"U  c #566F98",
"Y  c #5F5FAE",
"T  c #4661A9",
"R  c #5861A1",
"E  c #4463B9",
"W  c #476BB8",
"Q  c #5565B1",
"!  c #5176B6",
"~  c #636DAA",
"^  c #6070B7",
"/  c #6E7AB2",
"(  c #6979B4",
")  c #6B7CBD",
"_  c #376AC4",
"`  c #396FC6",
"'  c #4F7CCA",
"]  c #588D87",
"[  c #51858B",
"{  c #7688BB",
"}  c #7F8EBD",
"|  c #7F93B9",
" . c #5680CC",
".. c #5B88D3",
"X. c #6082C6",
"o. c #6285CC",
"O. c #6387CD",
"+. c #658ACD",
"@. c #7D93C5",
"#. c #678DD0",
"$. c #6F94D3",
"%. c #6B94D7",
"&. c #6691D8",
"*. c #6993D9",
"=. c #6B94D8",
"-. c #6B96DB",
";. c #6E96D8",
":. c #6F97D8",
">. c #6F97D9",
",. c #7D9DD7",
"<. c #739ADB",
"1. c #749BDA",
"2. c #759CDB",
"3. c #729CDD",
"4. c #7FA5E5",
"5. c #8694BF",
"6. c #B4B4B4",
"7. c #ACDC80",
"8. c #8298C3",
"9. c #87A5DA",
"0. c #80A3DE",
"q. c #81A4DE",
"w. c #82A5DF",
"e. c #9DA9D0",
"r. c #92A9D9",
"t. c #96AEDC",
"y. c #9BB1DA",
"u. c #8BABE1",
"i. c #8CACE1",
"p. c #8DAEE2",
"a. c #99B5E4",
"s. c #9AB5E4",
"d. c #9BB6E4",
"f. c #9CB8E5",
"g. c #9EBBE9",
"h. c #A1B7E0",
"j. c #A6BEE7",
"k. c #A9BDE2",
"l. c #A8BFE7",
"z. c #A9C1E8",
"x. c #ABC4EC",
"c. c #B3C4E5",
"v. c #BBCBE7",
"b. c #B0C7ED",
"n. c #B1C8EE",
"m. c #B5CBEF",
"M. c #B6CCEF",
"N. c #B9CBEB",
"B. c #BACFF2",
"V. c #BED2F3",
"C. c #BFD3F3",
"Z. c gray83",
"A. c #DADFE8",
"S. c #C2D3F0",
"D. c #C0D4F3",
"F. c #C7D7F0",
"G. c #C7D7F1",
"H. c #C0D5F5",
"J. c #C8D8F1",
"K. c #E2E7EC",
"L. c gray94",
"P. c gray96",
/* pixels */
"    6.6.6.6.6.6.6.6.6.6.6.6.6.6.6.6.6.6.6.6.    ",
"  6.Z.L.L.L.L.L.L.L.L.L.L.L.L.L.L.L.L.L.L.Z.6.  ",
"6.Z.L.L.L.L.L.L.L.L.L.L.L.L.L.L.P.P.L.L.L.L.Z.6.",
"6.L.L.L.L.L.L.L.L.L.L.L.L.L.L.L.P.P.L.L.L.L.L.6.",
"6.L.L.L.L.L.L.L.L.L.L.L.L.L.L.L.L.L.L.L.L.L.L.6.",
"6.L.L.L.L.L.L.L.L.C A V V L.L.L.L.L.L.L.L.L.L.6.",
"6.L.L.L.z b b b L.A.Z 0 2 D L.L.L.L.L.L.L.L.L.6.",
"6.L.L.L.s +.+.+.b L.K.[ e t D L.L.L.L.L.L.L.L.6.",
"6.L.L.L.+ -.-.-.L M P + ] 4 y U n N L.L.L.L.L.6.",
"6.L.L.L.s %.1.1.&.+.o.X.B 7.8 & t.s L.L.L.L.L.6.",
"6.L.L.L.s -.T G G G ! E c u 8 + ( % I Y L.L.L.6.",
"6.L.L.L.s -.+ { 5.8.x , < 3 8 ; - $ e.d L.L.L.6.",
"6.L.L.L.s -.+ g.x.M.8.: q 8 8 e - 5.G.+ L.L.L.6.",
"6.L.L.L.s W K i.d.j.M.) , 4 8 - / G.@.G L.L.L.6.",
"6.L.L.L.s . -.q.i.d.j.b.^ r 1 ~ G.J.. u.L.L.L.6.",
"6.L.L.L.s v %.1.q.i.d.l.b.Q R V.J.G.+ N.L.L.L.6.",
"6.L.L.L.s ` ..-.1.u.p.f.x.M.B.G.G.y.m L.L.L.L.6.",
"6.L.L.L.s ` '  .#.:.,.9.t.j.l.c.v.. 1.L.L.L.L.6.",
"6.L.L.L.l j j j j j j j j j j # # l L.L.L.L.L.6.",
"6.L.L.L.L.L.L.L.L.L.L.L.L.L.L.L.L.L.L.L.L.L.L.6.",
"6.L.L.L.L.L.L.L.L.L.L.L.L.L.L.L.L.L.L.L.L.L.L.6.",
"6.Z.L.L.L.L.L.L.L.L.L.L.L.L.L.L.L.L.L.L.L.L.Z.6.",
"  6.Z.L.L.L.L.L.L.L.L.L.L.L.L.L.L.L.L.L.L.Z.6.  ",
"    6.6.6.6.6.6.6.6.6.6.6.6.6.6.6.6.6.6.6.6.    "
};
