/* XPM */
static const char *pick_xpm[] = {
/* columns rows colors chars-per-pixel */
"24 24 8 1 ",
"  c None",
". c navy",
"X c #B4B4B4",
"o c #89A9DF",
"O c gray83",
"+ c #E2EAF8",
"@ c gray94",
"# c gray96",
/* pixels */
"  XXXXXXXXXXXXXXXXXXXX  ",
" XO@@@@@@@@@@@@@@@@@@OX ",
"XO@@#@@@@@@@@@@@@@@@@@OX",
"X@@@@@@@@@@@@@@@@@@@@@@X",
"X@@@@@@@@@@@@@@@...@@@@X",
"X@@@@@@@@@@@@@@.+...@@@X",
"X@@@@@@@@@@@@@......@@@X",
"X@@@@@@@@@@@........@@@X",
"X@#@@@@@@@@@@......@@@@X",
"X@@#@@@@@@@@.+....@@@@@X",
"X@@@@@@@@@@.+++..#@@@@@X",
"X@@@@@@@@@.+++.@.#@@@@@X",
"X@@@@@@@@.+++.@@@@@@@@@X",
"X@@@@@@@.+++.@@@@@@@@@@X",
"X@@@@@@.oo+.@@@@@@@@@@@X",
"X@@@@@.ooo.@@@@@@@@@@@@X",
"X@@@@.ooo.@@@@@@@@###@@X",
"X@@@.ooo.@@@@@##@@@@#@@X",
"X@@@.oo.@@@@@@@@@@@@@@@X",
"X@@@...@@@@@@@@@@@@@@@@X",
"X@@@@@@@@@@@@@@@@@@@@@@X",
"XO@@@@@@@@@@@@@@@@@@@@OX",
" XO@@@@@@@@@@@@@@@@@@OX ",
"  XXXXXXXXXXXXXXXXXXXX  "
};
