/* XPM */
static const char *play_xpm[] = {
/* columns rows colors chars-per-pixel */
"24 24 43 1 ",
"  c None",
". c #004A00",
"X c #085208",
"o c #085A08",
"O c #105A10",
"+ c #107B08",
"@ c #186318",
"# c #186B18",
"$ c #107310",
"% c #187318",
"& c #217B18",
"* c #185221",
"= c #214A21",
"- c #215221",
"; c #215A21",
": c #215229",
"> c #295229",
", c #314231",
"< c #315231",
"1 c #396339",
"2 c #396B39",
"3 c #108408",
"4 c #108C08",
"5 c #009400",
"6 c #089400",
"7 c #009C00",
"8 c #089C00",
"9 c #188410",
"0 c #108C10",
"q c #109410",
"w c #189410",
"e c #189C18",
"r c #218418",
"t c #218C18",
"y c #08B500",
"u c #218C21",
"i c #318431",
"p c #73B57B",
"a c #73BD7B",
"s c #B4B4B4",
"d c gray83",
"f c gray94",
"g c gray96",
/* pixels */
"  ssssssssssssssssssss  ",
" sdffffffffffffffffffds ",
"sdffffffffffffffgfffffds",
"sfffffffffffffffgggffffs",
"sfffffffffggfffffffffffs",
"sffffffffffgfffffffffffs",
"sfffffp<affffffffffffffs",
"sfffff>y--pffffffffffffs",
"sfffff>yyy@;affffffffffs",
"sfffff>y&uyy@Opffffffffs",
"sfffff-yrw43yyX=pffffffs",
"sfffff-yr88e4+yy.rfffffs",
"sfffff-yr756qwi9%,fffffs",
"sfffff:yt5505%..1ffffffs",
"sfffff*yr50$..2ffffffffs",
"sfffff.y#o..1ffffffffffs",
"sfffff12..2fffffffgggffs",
"sfffffa.1fffffgfffffgffs",
"sffffffffffffffffffffffs",
"sffffffffffffffffffffffs",
"sffffffffffffffffffffffs",
"sdffffffffffffffffffffds",
" sdfffgffffffffffffffds ",
"  ssssssssssssssssssss  "
};
