/* XPM */
static const char *record_xpm[] = {
/* columns rows colors chars-per-pixel */
"24 24 8 1 ",
"  c None",
". c #107310",
"X c #08B500",
"o c #73BD7B",
"O c #B4B4B4",
"+ c gray83",
"@ c gray94",
"# c gray96",
/* pixels */
"  OOOOOOOOOOOOOOOOOOOO  ",
" O+@@@@@@@@@@@@@@#@@@+O ",
"O+@@@@@@@@@@@@@@##@@@@+O",
"O@@@@@@@@@@@@@@@@@@@@@@O",
"O@@@@@@@@@@@@@@@@@@@@@@O",
"O@@@@@@@@@@@@@@@@@@@@@@O",
"O@@@@@@@@o....o@@@@@@@@O",
"O@@@@@@o..XXXX..o@@@@@@O",
"O@@@@@@.XXXXXXXX.@@@@@@O",
"O@@@@@o.XXXXXXXX.o@@@@@O",
"O@@@@@.XXXXXXXXXX.@@@@@O",
"O@@@@@.XXXXXXXXXX.@@@@@O",
"O@@@@@.XXXXXXXXXX.@@@@@O",
"O@@@@@.XXXXXXXXXX.@@@@@O",
"O@@@@@o.XXXXXXXX.o@@@@@O",
"O@@@@@@.XXXXXXXX.@@@@@@O",
"O@@@@@@o..XXXX..o@@@@@@O",
"O@@@@@@@@o....o@@@@@@@@O",
"O@@@@@@@@@@@@@@@@@@@@@@O",
"O@@@@@@@@@@@@@@@@@@@@@@O",
"O@@@@@@@@@@@@@@@@@@@@@@O",
"O+@@@@##@@@@@@@@@@@@@@+O",
" O+@@@##@@@@@@@@@@@@@+O ",
"  OOOOOOOOOOOOOOOOOOOO  "
};
