/* XPM */
static const char *redo_xpm[] = {
/* columns rows colors chars-per-pixel */
"24 24 6 1 ",
"  c None",
". c navy",
"X c #B4B4B4",
"o c gray83",
"O c gray94",
"+ c gray96",
/* pixels */
"  XXXXXXXXXXXXXXXXXXXX  ",
" XoOOOOOOOOOOOOOOOOOOoX ",
"XoOO+OOOOOOOOOOO+OOOOOoX",
"XOOOOOOOOOOOOOOO+++OOOOX",
"XOOOOOOOOOOOOOOOOOOOOOOX",
"XOOOOOOOOOOOOOOOOOOOOOOX",
"XOOOOOOOOOOO.OOOOOOOOOOX",
"XOOOOOOOOOOO..OOOOOOOOOX",
"XOOOOOOO++OO...OOOOOOOOX",
"XOOOOO..........OOOOOOOX",
"XOOOOO...........OOOOOOX",
"XOOOOO............OOOOOX",
"XOOOOO............OOOOOX",
"XOOOOO...........OOOOOOX",
"XOOOOO..........OOOOOOOX",
"XOOOOOOOOOOO...OOOOOOOOX",
"XOOOOOOOOOOO..OOOOOOOOOX",
"XOOOOOOOOOOO.OOOOOOOOO+X",
"XOOOOOOOOOOOOOOO+OOOOO+X",
"XOOOOOOOOOOOOOOO++OOOOOX",
"XOOOO+++OOOOOOOOOOOOOOOX",
"XoOOOOO+OOOOOOOOOOOOOOoX",
" XoOOOOOOOOOOOOOOOOOOoX ",
"  XXXXXXXXXXXXXXXXXXXX  "
};
