/* XPM */
static const char *reset_xpm[] = {
/* columns rows colors chars-per-pixel */
"24 24 6 1 ",
"  c None",
". c navy",
"X c #B4B4B4",
"o c gray83",
"O c gray94",
"+ c gray96",
/* pixels */
"  XXXXXXXXXXXXXXXXXXXX  ",
" XoOOOOOOOOOOOOOOOOOOoX ",
"XoOO+OOOOOOOOOOO++OOOOoX",
"XOOOOOOOOOOOOOOO+OOOOOOX",
"XOOOOOOOOO++OOOOOOOOOOOX",
"XOOOOOOOOOO+OOOOOOOOOOOX",
"XOOOOOOOOOOOOOOOOOOOOOOX",
"XOOOOOOOOO.OOOOOO.OOOOOX",
"XOOOOOOOO..OOOOO..OOOOOX",
"XOOOOOOO...OOOO...OOOOOX",
"XOOOOOO....OOO....OOOOOX",
"XOOOOO.....OO.....OOOOOX",
"XOOOOO.....OO.....OOOOOX",
"XOOOOOO....OOO....OOOOOX",
"XOOOOOOO...OOOO...OOOOOX",
"XOOOOOOOO..OOOOO..OOOOOX",
"XOOOOOOOOO.OOO+++.OOO+OX",
"XOOOOOOOOOOOOO+OOOOOO+OX",
"XOOOOOOOOOOOOOOOOOOOOOOX",
"XOOOOOOOOOOOOOOOOOOOOOOX",
"XOOOO+++OOOOOOOOOOOOOOOX",
"XoOOOOO+OOOOOOOOOOOOOOoX",
" XoOOOOOOOOOOOOOOOOOOoX ",
"  XXXXXXXXXXXXXXXXXXXX  "
};
