/* XPM */
static const char *save_xpm[] = {
/* columns rows colors chars-per-pixel */
"24 24 14 1 ",
"  c None",
". c #1C3866",
"X c navy",
"o c #2D59A3",
"O c #3467BC",
"+ c #5584D1",
"@ c #B4B4B4",
"# c #9FB9E5",
"$ c #A5BEE7",
"% c gray83",
"& c #CBD9F1",
"* c #DCE6F6",
"= c gray94",
"- c gray96",
/* pixels */
"  @@@@@@@@@@@@@@@@@@@@  ",
" @%==================%@ ",
"@%====================%@",
"@======================@",
"@======================@",
"@====XXXXXXXXXXXXXX====@",
"@====XOX********XOX====@",
"@====X+X*OOOOOO*X+X====@",
"@====X+X********X+X====@",
"@====X+X*OOOOOO*X+X====@",
"@====X+X********X+X====@",
"@====X+OXXXXXXXXO+X====@",
"@====X++++++++++++X====@",
"@====X++OXXXXXXO++X====@",
"@====X++X$$$#&*X++X====@",
"@====X++X$.oo&*X++X====@",
"@====X++X$.oo&*X++X====@",
"@====X++X$$&***X++X====@",
"@=====XXXXXXXXXXXX=====@",
"@======================@",
"@======================@",
"@%====================%@",
" @%==================%@ ",
"  @@@@@@@@@@@@@@@@@@@@  "
};
