/* XPM */
static const char *select_xpm[] = {
/* columns rows colors chars-per-pixel */
"24 24 7 1 ",
"  c None",
". c navy",
"X c #B4B4B4",
"o c gray83",
"O c #DCE6F6",
"+ c gray94",
"@ c gray96",
/* pixels */
"  XXXXXXXXXXXXXXXXXXXX  ",
" Xo++++++++++++++++++oX ",
"Xo++++++++++++++++++++oX",
"X++++++++++++++++++++++X",
"X++++++++++++++++++++++X",
"X++++++++++++++++++++++X",
"X++++..O..O..O..O..++++X",
"X++++OOOOOOOOOOOOOO++++X",
"X++++.OOOOOOOOOOOO.++++X",
"X++++.OOOOOOOOOOOO.++++X",
"X++++OOOOOOOOOOOOOO++++X",
"X++++.OOOOOOOOOOOO.++++X",
"X++++.OOOOOOOOOOOO.++++X",
"X++++OOOOOOOOOOOOOO++++X",
"X++++.OOOOOOOOOOOO.++++X",
"X++++.OOOOOOOOOOOO.++++X",
"X++++OOOOOOOOOOOOOO++++X",
"X++++..O..O..O..O..++++X",
"X++++++++++++++++++++++X",
"X++++++++++++++++++++++X",
"X++++++++++++++++++++++X",
"Xo++++++++++++++++++++oX",
" Xo++++++++++++++++++oX ",
"  XXXXXXXXXXXXXXXXXXXX  "
};
