/* XPM */
static const char *stop_xpm[] = {
/* columns rows colors chars-per-pixel */
"24 24 124 2 ",
"   c None",
".  c #660500",
"X  c #630B09",
"o  c #72030C",
"O  c #710A0B",
"+  c #740A0A",
"@  c #720F09",
"#  c #76100C",
"$  c #661713",
"%  c #79191D",
"&  c #692124",
"*  c #860000",
"=  c #870300",
"-  c #8C0002",
";  c #8E0002",
":  c #8E0004",
">  c #890209",
",  c #8B020C",
"<  c #831017",
"1  c #A4121F",
"2  c #852F18",
"3  c #982C1F",
"4  c #85301B",
"5  c #8F1D25",
"6  c #B81B24",
"7  c #912421",
"8  c #9C2126",
"9  c #962827",
"0  c #992820",
"q  c #912228",
"w  c #99242C",
"e  c #973027",
"r  c #872631",
"t  c #922A33",
"y  c #9E2C34",
"u  c #863838",
"i  c #9D3534",
"p  c #A6232B",
"a  c #A22B2F",
"s  c #A62730",
"d  c #CE0A14",
"f  c #D00717",
"g  c #D40F18",
"h  c #D80B1A",
"j  c #DA0C19",
"k  c #EA0712",
"l  c #EA0617",
"z  c #F00514",
"x  c #F50716",
"c  c #F10B15",
"v  c #C91020",
"b  c #D71726",
"n  c #E01121",
"m  c #ED1321",
"M  c #CD2D39",
"N  c #CB3534",
"B  c #D13C3E",
"V  c #FF2229",
"C  c #FF252A",
"Z  c #FF282B",
"A  c #FF2B2E",
"S  c #EA3D2F",
"D  c #F13228",
"F  c #FD3128",
"G  c #FF372D",
"H  c #F7392B",
"J  c #F53E2E",
"K  c #FF382E",
"L  c #E32D39",
"P  c #FF2734",
"I  c #FF2F31",
"U  c #FF3733",
"Y  c #FF3035",
"T  c #F83539",
"R  c #F73B3A",
"E  c #E84033",
"W  c #F74032",
"Q  c #FF483C",
"!  c #FF4A3D",
"~  c #A23741",
"^  c #DB3A40",
"/  c #FF3542",
"(  c #9F4753",
")  c #A0474D",
"_  c #DC4647",
"`  c #FF4643",
"'  c #FB4A42",
"]  c #FF4B41",
"[  c #FF4749",
"{  c #F9494C",
"}  c #FF4F4C",
"|  c #FF4C4F",
" . c #EE5F4F",
".. c #FB5346",
"X. c #FD5346",
"o. c #FD504C",
"O. c #FF534C",
"+. c #EF5754",
"@. c #EE5F51",
"#. c #F55557",
"$. c #F95A54",
"%. c #F95C57",
"&. c #FD5F54",
"*. c #F2625A",
"=. c #FF615E",
"-. c #F75C62",
";. c #F67266",
":. c #F37372",
">. c #F07E7D",
",. c #FF837E",
"<. c #FF8A7E",
"1. c #FF8F7C",
"2. c #FF8F7D",
"3. c #FE7680",
"4. c #B4B4B4",
"5. c #FF8580",
"6. c #FF8184",
"7. c #FF8384",
"8. c #FF8C85",
"9. c #FF828A",
"0. c #FF929D",
"q. c gray83",
"w. c gray94",
"e. c gray96",
/* pixels */
"    4.4.4.4.4.4.4.4.4.4.4.4.4.4.4.4.4.4.4.4.    ",
"  4.q.w.w.w.w.w.w.w.w.w.w.w.w.w.w.w.w.w.w.q.4.  ",
"4.q.w.w.w.w.w.w.w.w.w.w.w.w.w.w.w.w.w.w.w.w.q.4.",
"4.w.w.w.w.w.w.w.w.w.w.w.w.w.w.w.w.w.w.w.w.w.w.4.",
"4.w.w.w.w.w.w.w.w.w.w.w.w.w.w.w.w.w.w.w.w.w.w.4.",
"4.w.w.w.w.w.w.w.w.w.w.w.w.w.w.w.w.w.w.w.w.w.w.4.",
"4.w.w.w.w.w.( t q 9 e 4 4 4 0 0 i u w.w.w.w.w.4.",
"4.w.w.w.w.w.r 0.9.5.8.2.2.2.8.5.,.$ w.w.w.w.w.4.",
"4.w.w.w.w.w.~ 3.-.#.%.@. . .%.+.:.X w.w.w.w.w.4.",
"4.w.w.w.w.w.y 5.=.O.O.......| | B O w.w.w.w.w.4.",
"4.w.w.w.w.w.w ,.=.' ' ! ! ! ` [ N 7 w.w.w.w.w.4.",
"4.w.w.w.w.w.a ;.' S W J J J U R N # w.w.w.w.w.4.",
"4.w.w.w.w.w.a ;.' S W J J J U R N # w.w.w.w.w.4.",
"4.w.w.w.w.w.8 *.E D K F F F I T _ . w.w.w.w.w.4.",
"4.w.w.w.w.w.p | U C C A C C P / ^ # w.w.w.w.w.4.",
"4.w.w.w.w.w.s L m x x c l l l n 6 O w.w.w.w.w.4.",
"4.w.w.w.w.w.5 M b j j g d d f v 1 % w.w.w.w.w.4.",
"4.w.w.w.w.w.) < , : : : : : : , o & w.w.w.w.w.4.",
"4.w.w.w.w.w.w.w.w.w.w.w.w.w.w.w.w.w.w.w.w.w.w.4.",
"4.w.w.w.w.w.w.w.w.w.w.w.w.w.w.w.w.w.w.w.w.w.w.4.",
"4.w.w.w.w.w.w.w.w.w.w.w.w.w.w.w.w.w.w.w.w.w.w.4.",
"4.q.w.w.w.w.w.w.w.w.w.w.w.w.w.w.w.w.w.w.w.w.q.4.",
"  4.q.w.w.w.e.w.w.w.w.w.w.w.w.w.w.w.w.w.w.q.4.  ",
"    4.4.4.4.4.4.4.4.4.4.4.4.4.4.4.4.4.4.4.4.    "
};
