/* XPM */
static const char *tile_xpm[] = {
/* columns rows colors chars-per-pixel */
"24 24 7 1 ",
"  c None",
". c navy",
"X c #B4B4B4",
"o c gray83",
"O c #DCE6F6",
"+ c gray94",
"@ c gray96",
/* pixels */
"  XXXXXXXXXXXXXXXXXXXX  ",
" Xo+++++++++++++@@+++oX ",
"Xo++++++++++++++@@++++oX",
"X++++++++++++++++++++++X",
"X++++++++++++++++++++++X",
"X++++++++++++++++++++++X",
"X++++++++++++++++++++++X",
"X++++++..........++++++X",
"X++++++.OO.OO.OO.++++++X",
"X++++++.OO.OO.OO.++++++X",
"X++++++..........++++++X",
"X++++++.OO.OO.OO.++++++X",
"X++++++.OO.OO.OO.++++++X",
"X++++++..........++++++X",
"X++++++.OO.OO.OO.++++++X",
"X++++++.OO.OO.OO.++++++X",
"X++++++..........++++++X",
"X+++++++++++++++++++@@+X",
"X++++++++++++++++++++++X",
"X++++++++++++++++++++++X",
"X++++++++++++++++++++++X",
"Xo++++@@++++++++++++++oX",
" Xo+++@@+++++++++++++oX ",
"  XXXXXXXXXXXXXXXXXXXX  "
};
