/* XPM */
static const char *undo_xpm[] = {
/* columns rows colors chars-per-pixel */
"24 24 6 1 ",
"  c None",
". c navy",
"X c #B4B4B4",
"o c gray83",
"O c gray94",
"+ c gray96",
/* pixels */
"  XXXXXXXXXXXXXXXXXXXX  ",
" XoOOOOOOOOOOOOOOOOOOoX ",
"XoOO+OOOOOOOOOOO++OOOOoX",
"XOOOOOOOOOOOOOOO++OOOOOX",
"XOOOOOOOOOOOOOOOOOOOOOOX",
"XOOOOOOOOOOOOOOOOOOOOOOX",
"XOOOOOOOOOO.OOOOOOOOOOOX",
"XOOOOOOOOO..OOOOOOOOOOOX",
"XOOOOOOOO...OOOOOOOOOOOX",
"XOOOOOOO..........OOOOOX",
"XOOOOOO...........OOOOOX",
"XOOOOO............OOOOOX",
"XOOOOO............OOOOOX",
"XOOOOOO...........OOOOOX",
"XOOOOOOO..........OOOOOX",
"XOOOOOOOO...OOOOOOOOOOOX",
"XOOOOOOOOO..OOOO++OOO++X",
"XOOOOOOOOOO.OOOOO+OOOOOX",
"XOOOOOOOOOOOOOOOOOOOOOOX",
"XOOOOOOOOOOOOOOOOOOOOOOX",
"XOOOO+++OOOOOOOOOOOOOOOX",
"XoOOOOO+OOOOOOOOOOOOOOoX",
" XoOOOOOOOOOOOOOOOOOOoX ",
"  XXXXXXXXXXXXXXXXXXXX  "
};
