/* XPM */
static const char *zoomout_xpm[] = {
/* columns rows colors chars-per-pixel */
"24 24 7 1 ",
"  c None",
". c navy",
"X c #B4B4B4",
"o c gray83",
"O c #DCE6F6",
"+ c gray94",
"@ c gray96",
/* pixels */
"  XXXXXXXXXXXXXXXXXXXX  ",
" Xo++++++++++++++++++oX ",
"Xo++++++++++++++@+++++oX",
"X+++++++++++++++@@@++++X",
"X++++++++++++++++++++++X",
"X++++++++....++++++++++X",
"X++++++..OOOO..++++++++X",
"X+++++.OOOOOOOO.+++++++X",
"X+++++.OOOOOOOO.+++++++X",
"X++++.OOOOOOOOOO.++++++X",
"X++++.OO......OO.++++++X",
"X++++.OO......OO.++++++X",
"X++++.OOOOOOOOOO.++++++X",
"X+++++.OOOOOOOO.+++++++X",
"X+++++.OOOOOOOO..++++++X",
"X++++++..OOOO...O.+++++X",
"X++++++++....+.OOO.++++X",
"X++++++++++++++.OO.++++X",
"X+++++++++++++++..+++++X",
"X++++++++++++++++++++++X",
"X++++@@@+++++++++++++++X",
"Xo+++++@++++++++++++++oX",
" Xo++++++++++++++++++oX ",
"  XXXXXXXXXXXXXXXXXXXX  "
};
